<?xml version="1.0" standalone="no"?>
<!DOCTYPE svg PUBLIC "-//W3C//DTD SVG 20010904//EN"
 "http://www.w3.org/TR/2001/REC-SVG-20010904/DTD/svg10.dtd">
<svg version="1.0" xmlns="http://www.w3.org/2000/svg"
 width="120pt" height="30pt" viewBox="0 0 240 60"
 preserveAspectRatio="xMidYMid meet">

<g transform="translate(0.000000,60.000000) scale(0.100000,-0.100000)"
fill="#000000" stroke="none">
<path d="M0 300 l0 -300 1195 0 1195 0 0 300 0 300 -1195 0 -1195 0 0 -300z
m2360 0 l0 -270 -1170 0 -1170 0 0 270 0 270 1170 0 1170 0 0 -270z"/>
<path d="M60 300 l0 -220 480 0 480 0 0 220 0 220 -480 0 -480 0 0 -220z m850
20 c0 -114 -3 -140 -14 -140 -8 0 -16 6 -19 13 -3 9 -7 9 -20 -1 -25 -21 -83
-19 -114 4 -36 27 -51 81 -33 124 22 52 82 71 143 45 15 -6 17 -1 17 37 0 47
5 58 27 58 10 0 13 -30 13 -140z m-602 110 c28 -17 32 -25 32 -61 0 -36 -7
-48 -57 -100 l-56 -59 61 0 c48 0 62 -3 62 -15 0 -12 -17 -15 -90 -15 -68 0
-90 3 -90 13 0 7 32 44 70 81 78 75 88 104 45 132 -31 20 -69 8 -80 -25 -7
-23 -35 -29 -35 -8 0 20 30 58 54 67 33 13 48 12 84 -10z m187 -64 c29 22 73
17 100 -11 22 -21 25 -33 25 -100 0 -60 -3 -75 -15 -75 -12 0 -15 14 -15 65 0
52 -4 69 -20 85 -25 25 -41 25 -70 2 -17 -14 -23 -32 -27 -85 -4 -47 -10 -67
-19 -67 -11 0 -14 21 -14 93 0 96 6 119 25 94 9 -13 13 -13 30 -1z"/>
<path d="M772 343 c-19 -8 -43 -60 -35 -80 18 -52 83 -72 116 -35 52 58 -8
145 -81 115z"/>
<path d="M1090 310 l0 -130 75 0 c47 0 87 6 104 15 46 23 54 65 21 100 -18 20
-19 23 -5 35 16 13 20 57 7 76 -15 24 -54 34 -126 34 l-76 0 0 -130z m127 69
c18 -18 3 -39 -28 -39 -24 0 -29 4 -29 25 0 19 5 25 23 25 13 0 28 -5 34 -11z
m-3 -95 c9 -3 16 -15 16 -25 0 -15 -7 -19 -35 -19 -31 0 -35 3 -35 25 0 26 19
32 54 19z"/>
<path d="M1350 310 l0 -130 40 0 c39 0 40 1 40 35 0 22 5 35 13 35 7 0 21 -16
30 -35 15 -31 21 -35 57 -35 22 0 40 2 40 5 0 3 -9 23 -19 43 -19 37 -19 38 0
61 11 13 19 38 19 60 -1 68 -37 91 -144 91 l-76 0 0 -130z m139 56 c16 -19 4
-43 -25 -50 -34 -9 -44 0 -44 35 0 25 4 29 29 29 16 0 34 -6 40 -14z"/>
<path d="M1648 317 c-27 -68 -48 -126 -48 -130 0 -4 17 -7 39 -7 30 0 40 4 44
20 8 29 93 29 102 0 5 -16 15 -20 46 -20 47 0 48 -13 -14 145 l-44 110 -39 3
-39 3 -47 -124z m111 -39 c1 -5 -10 -8 -24 -8 -28 0 -30 4 -13 51 l11 33 13
-34 c7 -19 13 -38 13 -42z"/>
<path d="M1900 310 l0 -130 40 0 40 0 0 130 0 130 -40 0 -40 0 0 -130z"/>
<path d="M2030 310 l0 -130 40 0 39 0 3 62 3 63 45 -62 c39 -54 49 -62 78 -63
l32 0 0 130 0 130 -40 0 -39 0 -3 -61 -3 -61 -44 61 c-39 54 -48 61 -78 61
l-33 0 0 -130z"/>
</g>
</svg>
